<?xml version="1.0" encoding="utf-8"?>
<!-- Generator: Adobe Illustrator 22.0.0, SVG Export Plug-In . SVG Version: 6.00 Build 0)  -->
<svg version="1.1" id="Layer_1" xmlns="http://www.w3.org/2000/svg" xmlns:xlink="http://www.w3.org/1999/xlink" x="0px" y="0px"
	 viewBox="0 0 800 800" style="enable-background:new 0 0 800 800;" xml:space="preserve">
<style type="text/css">
	.st0{fill:#B3404A;}
</style>
<path class="st0" d="M400,800c-40.5,0-81.2-6.8-120.9-20.1c-12.4-4.2-19.1-17.7-15-30.1c4.2-12.4,17.7-19.1,30.1-15
	c34.8,11.7,70.4,17.6,105.7,17.6c194.3,0,352.4-159.5,352.4-355.6c0-192.6-158.8-349.3-354-349.3C205,47.6,47.6,204.3,47.6,396.9
	c0,67.6,18.7,133.1,54.2,189.3L111,600c3.8,5.7,5,12.8,3.1,19.5l-25.3,92.2l95.2-24.3c12.7-3.3,25.7,4.4,28.9,17.1
	c3.3,12.7-4.4,25.7-17.1,28.9L61,767.9c-8.2,2.1-16.9-0.3-22.8-6.4c-5.9-6-8.2-14.8-6-22.9l33.2-121.2l-3.4-5.1
	c-0.1-0.2-0.2-0.3-0.3-0.5C21.3,547.9,0,473.6,0,396.9c0-106.4,41.5-206.2,116.7-281C191.9,41.1,291.9,0,398.4,0
	c106.8,0,207.4,40.9,283.1,115.2C757.9,190,800,290,800,396.9c0,107-41.9,208.1-118,284.6C606,757.9,505.9,800,400,800z"/>
<path class="st0" d="M486.9,597C486.9,597,486.9,597,486.9,597c-16.5,0-33.7-3.3-51.1-9.9c-68.5-25.8-112.5-60.8-137.3-85.7
	c-24.8-24.8-59.9-68.8-85.7-137.3c-14.3-37.9-13-74.2,3.9-107.9c0.1-0.1,0.1-0.3,0.2-0.4c12.5-23.5,34.2-41.3,59.7-48.6l18.3-5.6
	c3.1-1,6.3-1.5,9.6-1.5c11.2,0,21.7,5.8,27.4,15.1c0.1,0.2,0.2,0.3,0.3,0.5l46.3,81.9c7.7,12.9,5.1,29.5-6.2,39.7L336.8,370
	c6.3,13.8,17.7,36.7,35.8,54.9c0.1,0.1,0.3,0.3,0.4,0.4l1.6,1.6c0.1,0.1,0.3,0.3,0.4,0.4c17.7,17.5,41.6,29.6,54.9,35.8l32.8-35.4
	c6.1-6.8,14.7-10.6,23.7-10.6c5.6,0,11.2,1.5,16,4.4l81.9,46.3c0.2,0.1,0.3,0.2,0.5,0.3c12.2,7.5,18,23.3,13.6,36.9l-5.6,18.3
	c-7.4,25.4-25.1,47.2-48.6,59.7c-0.1,0.1-0.2,0.1-0.4,0.2C525.5,592.4,506.4,597,486.9,597z M249.8,273c-12.2,24.4-12.9,49.9-2.3,78
	c24.7,65.6,59,106,77.2,124.2c18.2,18.2,58.6,52.5,124.2,77.2c13.2,5,25.9,7.5,38,7.5h0c13.8,0,26.9-3.2,40-9.8
	c14.7-7.8,25.7-21.4,30.2-37.2c0-0.1,0-0.2,0.1-0.2l4.5-14.9l-74.3-42.1l-34.9,37.7c-0.5,0.6-1.1,1.1-1.6,1.6c-5.4,4.5-12.1,7-19,7
	c-3.9,0-7.7-0.8-11.4-2.3c-0.1,0-0.2-0.1-0.3-0.1c-12.7-5.7-46.4-20.9-71.7-46.2c-0.1-0.1-0.2-0.2-0.3-0.3l-0.6-0.6
	c-0.1-0.1-0.1-0.1-0.2-0.2l-0.6-0.6c-0.1-0.1-0.2-0.2-0.3-0.3c-25.4-25.4-39.2-56.2-45.9-71l-0.3-0.7c0-0.1-0.1-0.2-0.1-0.3
	c-4.4-10.2-2.6-21.8,4.7-30.4c0.5-0.6,1-1.1,1.6-1.6l37.7-34.9l-42.1-74.3l-14.9,4.5c-0.1,0-0.2,0-0.2,0.1
	C271.2,247.4,257.7,258.4,249.8,273z"/>
</svg>
