<svg id="Layer_1" data-name="Layer 1" xmlns="http://www.w3.org/2000/svg" viewBox="0 0 11.16608 14.67971"><title>Asset 1</title><g id="Layer_2" data-name="Layer 2"><g id="Layer_1-2" data-name="Layer 1-2"><path d="M10.19,7.62A3.761,3.761,0,0,0,8.56,6.8a3.078,3.078,0,0,0,1.39-.79,1.68526,1.68526,0,0,0,.42-1.13,1.58091,1.58091,0,0,0-.64-1.33,2.76956,2.76956,0,0,0-1.72-.49q-.3,0-1.32.06c-.31.01-.64.02-.98.02L4.64,3.12c-.11,0-.17.04-.17.11005s.06006.11.17.13a.8545.8545,0,0,1,.55.23,1.7048,1.7048,0,0,1,.21.77,12.08445,12.08445,0,0,1,.07,1.59c.01.21,0,.52-.02.92-.01.26-.01.56-.01.92q-.345.02994-.69.03a2.13811,2.13811,0,0,1-.97-.2A1.29688,1.29688,0,0,1,3.22,7,1.92486,1.92486,0,0,1,3.08,6.38a11.08233,11.08233,0,0,1-.04-1.16V1.84A3.99476,3.99476,0,0,1,3.11.93,1.02686,1.02686,0,0,1,3.35.44.95555.95555,0,0,1,3.68.22,1.55885,1.55885,0,0,1,4.16.14V0H.76V.14a1.25684,1.25684,0,0,1,.47.08.94928.94928,0,0,1,.34.22.95228.95228,0,0,1,.24.48,4.07778,4.07778,0,0,1,.07.92V6.16A4.44126,4.44126,0,0,1,1.82,7.05a.94593.94593,0,0,1-.23.47,1.0336,1.0336,0,0,1-.83.34V8H5.43v.44a12.38785,12.38785,0,0,1-.07,1.49,1.55074,1.55074,0,0,1-.21.66.56778.56778,0,0,1-.37.2c-.26.06-.41.09-.45.1a.09606.09606,0,0,0-.06.09c0,.08.07.11.21.11.42-.02,1.23-.03,2.44-.03l.37.02c.36.02.62.03.79.03a2.64952,2.64952,0,0,0,1.98-.7,2.09324,2.09324,0,0,0,.67-1.5A1.76071,1.76071,0,0,0,10.19,7.62Zm-3.69-2c0-.54.01-1.25.05-2.13a3.33019,3.33019,0,0,1,.99-.18A1.91113,1.91113,0,0,1,8.78,3.72a1.4947,1.4947,0,0,1,.5,1.25,1.51031,1.51031,0,0,1-.67,1.4,3.01655,3.01655,0,0,1-.75.3L7.89,5.6l-.13-.02a5.14734,5.14734,0,0,1-.22.88,1.8749,1.8749,0,0,1-.12.3,3.02,3.02,0,0,1-.6.03A.42472.42472,0,0,1,6.55,6.74a.35737.35737,0,0,1-.05-.23ZM6.47,7.6a1.03715,1.03715,0,0,1,.08-.52V7.07c.26-.02.5-.04.71-.04-.01.01-.01.02-.02.03a1.64076,1.64076,0,0,1-.71.57c-.02,0-.04.01-.06006.01ZM9.27,10.05a1.68381,1.68381,0,0,1-.64.63,2.27288,2.27288,0,0,1-.9.15,4.07779,4.07779,0,0,1-.92-.07c-.19-.06-.3-.12-.34-.2a6.70311,6.70311,0,0,1-.05-1.1L6.46,8H7.82l.03-.96A2.47626,2.47626,0,0,1,9.01,7.49,1.77445,1.77445,0,0,1,9.57,8.92,2.04093,2.04093,0,0,1,9.27,10.05Z" transform="translate(0 0.00002)"/><path d="M.612,14.679a.88207.88207,0,0,1-.261-.035.52692.52692,0,0,1-.188-.1.437.437,0,0,1-.116-.156A.58215.58215,0,0,1,0,14.182H.106a.487.487,0,0,0,.061.183.368.368,0,0,0,.109.116.43005.43005,0,0,0,.149.061A.836.836,0,0,0,.6,14.56a.64289.64289,0,0,0,.177-.023.41606.41606,0,0,0,.135-.067A.30889.30889,0,0,0,1,14.364a.315.315,0,0,0,.029-.139A.3309.3309,0,0,0,1,14.087a.245.245,0,0,0-.086-.1.64681.64681,0,0,0-.16-.075c-.065-.021-.147-.044-.245-.067a1.22472,1.22472,0,0,1-.207-.068.53127.53127,0,0,1-.144-.091.326.326,0,0,1-.083-.117.4.4,0,0,1-.027-.154.41013.41013,0,0,1,.036-.174.39309.39309,0,0,1,.1-.136.49207.49207,0,0,1,.16-.087.64688.64688,0,0,1,.207-.032.681.681,0,0,1,.207.03.5.5,0,0,1,.164.084.40009.40009,0,0,1,.114.133.5.5,0,0,1,.057.179H1a.41576.41576,0,0,0-.049-.122.34892.34892,0,0,0-.086-.1.433.433,0,0,0-.127-.064.56205.56205,0,0,0-.167-.023.47.47,0,0,0-.3.081.263.263,0,0,0-.1.22.2999.2999,0,0,0,.018.112.222.222,0,0,0,.064.085.39986.39986,0,0,0,.119.067,1.38893,1.38893,0,0,0,.184.055c.043.009.088.02.133.031s.09.024.134.038a.77.77,0,0,1,.124.056.39033.39033,0,0,1,.1.08.36391.36391,0,0,1,.07.114.416.416,0,0,1,.027.157.463.463,0,0,1-.04.191.45512.45512,0,0,1-.11.15.49987.49987,0,0,1-.169.1A.62692.62692,0,0,1,.612,14.679Z" transform="translate(0 0.00002)"/><path d="M2.005,12.989a.653.653,0,0,1,.279.06.613.613,0,0,1,.219.17.78.78,0,0,1,.144.264,1.079,1.079,0,0,1,.052.346,1.106,1.106,0,0,1-.051.345.83188.83188,0,0,1-.143.269.65494.65494,0,0,1-.219.174.668.668,0,0,1-.562,0,.64789.64789,0,0,1-.22-.174.812.812,0,0,1-.143-.267,1.119,1.119,0,0,1-.051-.347,1.07606,1.07606,0,0,1,.052-.347.78.78,0,0,1,.144-.264.64.64,0,0,1,.5-.229ZM2,14.56a.5619.5619,0,0,0,.233-.049.5.5,0,0,0,.185-.142.67.67,0,0,0,.121-.23,1.01888,1.01888,0,0,0,.043-.31,1.00015,1.00015,0,0,0-.044-.31.65411.65411,0,0,0-.121-.225.50711.50711,0,0,0-.183-.139.563.563,0,0,0-.23-.047.587.587,0,0,0-.235.048.531.531,0,0,0-.185.139.677.677,0,0,0-.121.226.99994.99994,0,0,0-.044.308,1.05111,1.05111,0,0,0,.043.31.68616.68616,0,0,0,.12.23.5.5,0,0,0,.185.142A.55894.55894,0,0,0,2,14.56Z" transform="translate(0 0.00002)"/><path d="M3.8,14.649H2.931v-1.63h.108V14.53H3.8Z" transform="translate(0 0.00002)"/><path d="M4.57,14.679a.73611.73611,0,0,1-.225-.031.44491.44491,0,0,1-.156-.083.38593.38593,0,0,1-.1-.122.62469.62469,0,0,1-.055-.148.98121.98121,0,0,1-.024-.164V13.019h.107v.942a1.20013,1.20013,0,0,0,.031.3.42393.42393,0,0,0,.088.182.3.3,0,0,0,.143.09.7.7,0,0,0,.193.024.72285.72285,0,0,0,.195-.024.28806.28806,0,0,0,.143-.09.446.446,0,0,0,.09-.18,1.2996,1.2996,0,0,0,.029-.3v-.942h.108v.947a1.607,1.607,0,0,1-.026.3.58912.58912,0,0,1-.088.223.406.406,0,0,1-.173.14A.664.664,0,0,1,4.57,14.679Z" transform="translate(0 0.00002)"/><path d="M6.446,13.138H5.931v1.511H5.823V13.138H5.314v-.119H6.446Z" transform="translate(0 0.00002)"/><path d="M6.782,14.649H6.674v-1.63h.108Z" transform="translate(0 0.00002)"/><path d="M7.749,12.989a.64606.64606,0,0,1,.278.06.616.616,0,0,1,.22.17.8.8,0,0,1,.144.264,1.185,1.185,0,0,1,0,.691.85207.85207,0,0,1-.143.269.64789.64789,0,0,1-.22.174.666.666,0,0,1-.561,0,.64789.64789,0,0,1-.22-.174.812.812,0,0,1-.143-.267,1.11927,1.11927,0,0,1-.051-.347,1.1052,1.1052,0,0,1,.051-.347.8.8,0,0,1,.145-.264.634.634,0,0,1,.22-.169A.644.644,0,0,1,7.749,12.989Zm0,1.571a.5619.5619,0,0,0,.233-.049.50807.50807,0,0,0,.185-.142.66984.66984,0,0,0,.121-.23,1.05078,1.05078,0,0,0,.043-.31,1.00015,1.00015,0,0,0-.044-.31.67186.67186,0,0,0-.121-.225.515.515,0,0,0-.183-.139.564.564,0,0,0-.231-.047.583.583,0,0,0-.234.048.522.522,0,0,0-.185.139.67808.67808,0,0,0-.122.226.99982.99982,0,0,0-.043.308,1.052,1.052,0,0,0,.042.31.66984.66984,0,0,0,.121.23.49994.49994,0,0,0,.184.142.563.563,0,0,0,.233.049Z" transform="translate(0 0.00002)"/><path d="M9.806,14.649H9.665l-.9-1.488v1.488H8.659v-1.63h.148L9.7,14.5V13.019h.108Z" transform="translate(0 0.00002)"/><path d="M10.637,14.679a.89086.89086,0,0,1-.261-.035.536.536,0,0,1-.188-.1.437.437,0,0,1-.116-.156.6.6,0,0,1-.047-.206h.106a.50513.50513,0,0,0,.061.183.371.371,0,0,0,.11.116.42516.42516,0,0,0,.148.061.84344.84344,0,0,0,.177.018.65089.65089,0,0,0,.178-.023.41118.41118,0,0,0,.134-.067.309.309,0,0,0,.085-.106.315.315,0,0,0,.03-.139.33.33,0,0,0-.026-.138.245.245,0,0,0-.086-.1.62221.62221,0,0,0-.159-.075c-.066-.021-.148-.044-.245-.067a1.239,1.239,0,0,1-.208-.068.50914.50914,0,0,1-.143-.091.30006.30006,0,0,1-.083-.117.385.385,0,0,1-.028-.154.4.4,0,0,1,.037-.174.39.39,0,0,1,.1-.136.5.5,0,0,1,.16-.087.65087.65087,0,0,1,.207-.032.681.681,0,0,1,.207.03.49988.49988,0,0,1,.165.084.42908.42908,0,0,1,.114.133.494.494,0,0,1,.056.179h-.1a.44307.44307,0,0,0-.048-.122.37005.37005,0,0,0-.087-.1.41493.41493,0,0,0-.126-.064.5728.5728,0,0,0-.168-.023.472.472,0,0,0-.3.081.266.266,0,0,0-.1.22.31675.31675,0,0,0,.018.112.222.222,0,0,0,.064.085.39982.39982,0,0,0,.12.067,1.29876,1.29876,0,0,0,.184.055c.043.009.087.02.132.031s.091.024.134.038a.78154.78154,0,0,1,.125.056.40711.40711,0,0,1,.1.08.38423.38423,0,0,1,.07.114.43719.43719,0,0,1,.026.157.44813.44813,0,0,1-.04.191.44209.44209,0,0,1-.11.15.485.485,0,0,1-.168.1A.63313.63313,0,0,1,10.637,14.679Z" transform="translate(0 0.00002)"/></g></g></svg>